<svg xmlns="http://www.w3.org/2000/svg" version="1.1" xmlns:xlink="http://www.w3.org/1999/xlink" xmlns:svgjs="http://svgjs.dev/svgjs" width="100%" height="100%" viewBox="0 0 1000 600"><rect width="1000" height="600" x="0" y="0" fill="#ffff"/><g><rect width="333.3333333333333" height="333.3333333333333" rx="13.333333333333334" ry="13.333333333333334" y="215.24440633235676" fill="80000" transform="matrix(0.6475937683005438,0,0,0.6475937683005438,0,52.676729723513986)" x="193.0222473144531"/><path d="M346.754880300973 448.17264325326573L328.2363618369626 456.91106915347063L310.0940007792524 417.3277359366484Q303.23636191054857 402.5418563505401 292.8196952745427 396.2918563689366Q282.40302863853685 390.04185638733304 266.14145461232783 390.04185638733304L266.14145461232783 390.04185638733304L263.016454621526 390.04185638733304L263.016454621526 454.42264323486916L243.22478801311493 454.42264323486916L243.22478801311493 308.99440292218765Q254.27802872132114 307.95273625858704 264.3764083212268 307.43190292678673Q274.4747879211325 306.91106959498643 285.9331212207388 306.91106959498643L285.9331212207388 306.91106959498643Q312.6113618829538 306.91106959498643 326.03728776936134 317.7617640074925Q339.46321365576887 328.5835232348986 339.46321365576887 345.68421762900823L339.46321365576887 345.68421762900823Q339.46321365576887 360.8751898065167 330.4065007194638 370.16338422362196Q321.3497877831587 379.42264345562717 304.2780285741492 383.99440270142975L304.2780285741492 383.99440270142975Q309.89145448355237 386.51176380513107 314.2606674336548 389.95505083203307Q318.62988038375727 393.369402673835 322.7097414828595 399.0985693236381Q326.7606673968618 404.82773597344135 330.9273340512641 414.0001896501466L330.9273340512641 414.0001896501466L346.754880300973 448.17264325326573ZM263.016454621526 324.4168565804963L263.016454621526 373.37518976972376L285.9331212207388 373.37518976972376Q300.92154710254727 373.37518976972376 310.2965470749525 366.72009719671996Q319.67154704735776 360.0360694386163 319.67154704735776 347.53606947540925L319.67154704735776 347.53606947540925Q319.67154704735776 337.1194028394034 310.93312114715286 330.34856952599955Q302.19469524694796 323.5777362125958 285.9331212207388 323.5777362125958L285.9331212207388 323.5777362125958Q278.8440008712349 323.5777362125958 273.23057496183173 323.8092176933959Q267.5882138673286 324.01176398909604 263.016454621526 324.4168565804963L263.016454621526 324.4168565804963ZM476.1530280682456 442.7617636395627L462.3798799606378 456.91106915347063L391.54654683579815 387.35088417303155L391.54654683579815 454.42264323486916L371.75488022738705 454.42264323486916L371.75488022738705 308.5893103307874L391.54654683579815 308.5893103307874L391.54654683579815 375.0534305055247L453.6414540604329 307.95273625858704L466.9805743915405 320.250189926094L410.0940004849085 379.42264345562717L476.1530280682456 442.7617636395627Z " fill="white" transform="matrix(0.6475937683005438,0,0,0.6475937683005438,0,52.676729723513986)"/><path d="M627.6423610790488 454.52836152759994L609.688906868522 454.52836152759994L609.688906868522 350.7972927556675L627.0328302262222 350.7972927556675L627.0328302262222 373.34993431024895Q629.6371893246629 366.7559187205802 634.0147290858716 361.0761994101513Q638.419974794936 355.3964800997222 644.9862844367491 351.90553066989764Q651.5803000264178 348.41458124007295 660.3630854966909 348.41458124007295L660.3630854966909 348.41458124007295Q663.355327865112 348.41458124007295 666.3475702335332 348.6916407186304Q669.3398126019543 348.9964061450437 671.3346408475684 349.60593699787023L671.3346408475684 349.60593699787023L665.9319810156969 368.1412161133678Q662.1639721073147 366.56197708559 656.9552539104335 366.56197708559L656.9552539104335 366.56197708559Q649.5854717808037 366.56197708559 642.9083383475677 370.7455752118084Q636.2312049143317 374.92917333802677 631.9367829966902 383.7119588083Q627.6423610790488 392.4947442785731 627.6423610790488 406.0429527800354L627.6423610790488 406.0429527800354L627.6423610790488 454.52836152759994ZM773.264823008877 444.55422029952956L760.9079702652119 456.5231897732141L707.241549268622 401.2775297488462L707.241549268622 454.52836152759994L689.2880950580951 454.52836152759994L689.2880950580951 306.91107135215765L707.241549268622 306.91107135215765L707.241549268622 391.3033885207758L754.1200130405529 348.8024645100535L764.4820375386038 360.16190313091147L724.3915309913319 395.6809282819845L773.264823008877 444.55422029952956ZM809.1717314299304 454.52836152759994L791.2182772194037 454.52836152759994L791.2182772194037 350.7972927556675L809.1717314299304 350.7972927556675L809.1717314299304 454.52836152759994ZM800.1950043246671 333.037780180131L800.1950043246671 333.037780180131Q795.0139920756416 333.037780180131 791.3291010108267 329.24206532389314Q787.6165039981561 325.474056415511 787.6165039981561 320.4869858014757L787.6165039981561 320.4869858014757Q787.6165039981561 314.69644269962373 791.0243355844135 311.2886111133663Q794.4044612228151 307.90848547496466 800.1950043246671 307.90848547496466L800.1950043246671 307.90848547496466Q805.3760165736926 307.90848547496466 809.0609076385075 311.59337653977957Q812.7735046511781 315.2782676045945 812.7735046511781 320.4869858014757L812.7735046511781 320.4869858014757Q812.7735046511781 326.0558813204817 809.3656730649208 329.5468307503064Q805.985547426519 333.037780180131 800.1950043246671 333.037780180131ZM887.7735054966964 456.9110730431945L887.7735054966964 456.9110730431945Q878.7967783914331 456.9110730431945 870.9005832525442 453.6417711962159Q863.0320940615107 450.34476340138156 857.8510818124853 445.93951769231705L857.8510818124853 445.93951769231705L857.8510818124853 454.52836152759994L841.0889833597558 454.52836152759994L841.0889833597558 306.91107135215765L859.0424375702826 306.91107135215765L859.0424375702826 361.57490647155475Q863.0320940615107 356.97571912750004 870.7066416175538 352.6812972098586Q878.3811891735969 348.41458124007295 888.9648612544938 348.41458124007295L888.9648612544938 348.41458124007295Q900.9338307281784 348.41458124007295 911.4066790176523 354.67612545547274Q921.8795273071263 360.9653756187282 928.2518953139489 372.8512272488455Q934.6519692686276 384.70937293110694 934.6519692686276 401.6654130188267L934.6519692686276 401.6654130188267Q934.6519692686276 414.02226576249177 930.6623127773993 424.21805457340815Q926.6726562861712 434.38613743646886 919.9955228529352 441.6728017225314Q913.2906834718434 448.93176006073816 904.9234872194065 452.92141655196633Q896.5562909669696 456.9110730431945 887.7735054966964 456.9110730431945ZM882.9803765176516 440.9524470782819L882.9803765176516 440.9524470782819Q892.7605761107318 440.9524470782819 900.2411820317845 436.1870240470927Q907.7217879528374 431.39389506804775 912.0162098704787 422.61110959777466Q916.2829258402645 413.82832412750145 916.2829258402645 402.27494387165325L916.2829258402645 402.27494387165325Q916.2829258402645 390.3059743979687 912.0162098704787 381.71713056268584Q907.7217879528374 373.12828672740295 900.6290653017651 368.55680533120403Q893.5640485985485 363.9576179871493 884.9752047632657 363.9576179871493L884.9752047632657 363.9576179871493Q876.3863609279828 363.9576179871493 869.5152858597565 368.25203990479076Q862.6442107915302 372.5464618224322 859.0424375702826 377.53353243646745L859.0424375702826 377.53353243646745L859.0424375702826 432.97313409582557Q863.6416249143373 436.5749073170732 869.8200512861698 438.76367719767757Q875.9984776580023 440.9524470782819 882.9803765176516 440.9524470782819ZM993.499402514243 456.9110730431945L993.499402514243 456.9110730431945Q984.5226754089796 456.9110730431945 976.5433624265232 453.14306413481233Q968.5640494440669 449.3473492785745 963.5769788300317 440.86932923471466Q958.5899082159965 432.3913091908547 958.5899082159965 418.23356983656595L958.5899082159965 418.23356983656595L958.5899082159965 350.7972927556675L976.5433624265232 350.7972927556675L976.5433624265232 415.8231523731156Q976.5433624265232 427.9860634817903 981.7243746755488 434.4692552800361Q986.9053869245743 440.9524470782819 996.8795281526446 440.9524470782819L996.8795281526446 440.9524470782819Q1005.0527827700913 440.9524470782819 1012.7550362739902 437.68314523130323Q1020.4295838300332 434.38613743646886 1026.4140685668754 428.7895359696071L1026.4140685668754 428.7895359696071L1026.4140685668754 350.7972927556675L1044.3675227774024 350.7972927556675L1044.3675227774024 427.5981802118098Q1044.3675227774024 436.1870240470927 1048.052413842217 438.8745009891005Q1051.737304907032 441.56197793110834 1056.1425506160963 441.56197793110834L1056.1425506160963 441.56197793110834L1052.3468357598585 455.525775650407Q1033.7838506965054 455.525775650407 1029.4063109352965 440.7585054432916L1029.4063109352965 440.7585054432916Q1022.4244120756472 447.9343459379312 1013.2537433353936 452.42270949056285Q1004.0553686472841 456.9110730431945 993.499402514243 456.9110730431945ZM1113.9925697389049 456.9110730431945L1113.9925697389049 456.9110730431945Q1105.0158426336416 456.9110730431945 1097.036529651185 453.14306413481233Q1089.0572166687289 449.3473492785745 1084.0701460546934 440.86932923471466Q1079.0830754406584 432.3913091908547 1079.0830754406584 418.23356983656595L1079.0830754406584 418.23356983656595L1079.0830754406584 350.7972927556675L1097.036529651185 350.7972927556675L1097.036529651185 415.8231523731156Q1097.036529651185 427.9860634817903 1102.2175419002106 434.4692552800361Q1107.3985541492361 440.9524470782819 1117.3726953773066 440.9524470782819L1117.3726953773066 440.9524470782819Q1125.5459499947533 440.9524470782819 1133.2204975507962 437.68314523130323Q1140.9227510546953 434.38613743646886 1146.9072357915375 428.7895359696071L1146.9072357915375 428.7895359696071L1146.9072357915375 350.7972927556675L1164.860690002064 350.7972927556675L1164.860690002064 427.5981802118098Q1164.860690002064 436.1870240470927 1168.545581066879 438.8745009891005Q1172.2304721316937 441.56197793110834 1176.6080118929026 441.56197793110834L1176.6080118929026 441.56197793110834L1172.8400029845207 455.525775650407Q1154.277017921167 455.525775650407 1149.8994781599586 440.7585054432916L1149.8994781599586 440.7585054432916Q1142.9175793003092 447.9343459379312 1133.7192046122 452.42270949056285Q1124.5485358719461 456.9110730431945 1113.9925697389049 456.9110730431945ZM1232.0753195001162 456.9110730431945L1232.0753195001162 456.9110730431945Q1222.9046507598628 456.9110730431945 1215.507162682377 453.4201236133699Q1208.1373805527473 449.92917418354523 1203.8429586351062 442.1715087839349Q1199.5485367174647 434.38613743646886 1199.5485367174647 422.0015787449481L1199.5485367174647 422.0015787449481L1199.5485367174647 306.91107135215765L1217.5019909279913 306.91107135215765L1217.5019909279913 420.22839808218Q1217.5019909279913 430.9783058502114 1221.990354480623 436.1870240470927Q1226.4787180332546 441.36803629611813 1234.4580310157107 441.36803629611813L1234.4580310157107 441.36803629611813Q1238.253745871949 441.36803629611813 1241.938636936764 440.4537400168783Q1245.6512339494343 439.5671496854943 1248.227887100019 438.37579392769703L1248.227887100019 438.37579392769703L1252.6331328090837 452.92141655196633Q1249.031359587836 454.52836152759994 1243.7395235473878 455.7197172853972Q1238.447687506939 456.9110730431945 1232.0753195001162 456.9110730431945ZM1308.0727344684415 456.9110730431945L1308.0727344684415 456.9110730431945Q1285.7417404967064 456.9110730431945 1272.6645331087916 442.6702158453385Q1259.615031668733 428.40165269962654 1259.615031668733 402.6628271416338L1259.615031668733 402.6628271416338Q1259.615031668733 387.0920844467016 1265.4886926141521 374.8460554944595Q1271.3623535595716 362.5723205943618 1281.9460256404682 355.4795979432895Q1292.5296977213652 348.41458124007295 1306.493495440664 348.41458124007295L1306.493495440664 348.41458124007295Q1321.4547072827695 348.41458124007295 1331.3180247194173 354.89777303831875Q1341.1813421560641 361.38096483656454 1346.1684127700996 372.352520187442Q1351.1554833841346 383.32407553831945 1351.1554833841346 396.48440076980125L1351.1554833841346 396.48440076980125Q1351.1554833841346 403.46629962945053 1350.573658479164 410.0326092712636L1350.573658479164 410.0326092712636L1277.9563691492403 410.0326092712636Q1279.7572557598642 424.6059378433887 1288.124452012301 432.77919246083525Q1296.5193542125935 440.9524470782819 1310.261504349046 440.9524470782819L1310.261504349046 440.9524470782819Q1319.2382314543092 440.9524470782819 1326.4417778968045 439.06844262409084Q1333.6176183914445 437.18443816989975 1340.1839280332574 434.19219580147853L1340.1839280332574 434.19219580147853L1344.3952321073316 449.5412909135647Q1337.1916856648363 452.7274749169761 1328.214958559573 454.8331269540132Q1319.2382314543092 456.9110730431945 1308.0727344684415 456.9110730431945ZM1277.7624275142498 395.4869866469942L1277.7624275142498 395.4869866469942L1334.6150325142512 395.4869866469942Q1334.6150325142512 380.33183316989835 1327.0236028017757 372.130872604596Q1319.4598790371556 363.9576179871493 1306.0779062228276 363.9576179871493L1306.0779062228276 363.9576179871493Q1294.5245259669796 363.9576179871493 1286.9330962545037 372.0477547610287Q1279.3416665420277 380.11018558705234 1277.7624275142498 395.4869866469942Z " fill="#000000" transform="matrix(0.6475937683005438,0,0,0.6475937683005438,0,52.676729723513986)"/></g></svg>